<svg xmlns="http://www.w3.org/2000/svg" width="10.888" height="12.868" viewBox="0 0 10.888 12.868">
  <path id="Icon_ionic-md-notifications-outline" data-name="Icon ionic-md-notifications-outline" d="M11.1,5.617a4.472,4.472,0,0,1,.74.139,3.152,3.152,0,0,1,2.4,3.089v3.947l.288.29.241.242H7.367l.241-.242.288-.29V8.844a3.152,3.152,0,0,1,2.4-3.089,5.476,5.476,0,0,1,.74-.139m.031-2.242a.946.946,0,0,0-.961.965v.45a4.17,4.17,0,0,0-3.2,4.054v3.539L5.625,13.67v.643H16.513V13.67l-1.281-1.287V8.844a4.17,4.17,0,0,0-3.2-4.054V4.34a.946.946,0,0,0-.961-.965ZM12.35,14.956H9.788a1.281,1.281,0,1,0,2.562,0Z" transform="translate(-5.625 -3.375)" fill="#00e6df"/>
</svg>
