<svg xmlns="http://www.w3.org/2000/svg" width="14.398" height="12.713" viewBox="0 0 14.398 12.713">
  <g id="Group_24742" data-name="Group 24742" transform="translate(0.225)">
    <path id="Path_317986" data-name="Path 317986" d="M959.571,1397.552l-.1.157-.045-.167a.575.575,0,0,0-.657-.521.649.649,0,0,0-.65.464l-.1.1-.048-.174c-.133-.639-.971-.746-1.353.032-.044-.861-.01-1.836-.005-2.708,0-.495-.043-.871-.375-1.037a.744.744,0,0,0-.973.252c-.208.431-.043,4.43-.09,5.3-.3-.465-.541-1.044-.831-1.546a.911.911,0,0,0-1.511-.138c-.455.627.07,1.192.351,1.665l1.823,2.889c.358.665-.058,1.457.455,1.9.4.35,1.516.219,2.155.219a4.551,4.551,0,0,0,2.163-.206,3.938,3.938,0,0,1-1.057-1.457,3.851,3.851,0,0,1-.2-2.228,3.764,3.764,0,0,1,2.326-2.7A.664.664,0,0,0,959.571,1397.552Z" transform="translate(-952.654 -1391.929)" fill="none" stroke="#00e6df" stroke-width="0.5" fill-rule="evenodd"/>
    <path id="Path_317987" data-name="Path 317987" d="M1395.484,1697.182a3.2,3.2,0,1,0-3.582,2.784A3.192,3.192,0,0,0,1395.484,1697.182Z" transform="translate(-1381.6 -1687.541)" fill="none" stroke="#00e6df" stroke-width="0.5" fill-rule="evenodd"/>
    <path id="Path_317988" data-name="Path 317988" d="M1035.641,1280.849c-.026-.8-.193-2.368,1.289-2.351a1.363,1.363,0,0,1,1.117.7,4.223,4.223,0,0,1,.13,1.666,2,2,0,1,0-3.17-.924A1.6,1.6,0,0,0,1035.641,1280.849Z" transform="translate(-1033.719 -1277.329)" fill="#00e6df" fill-rule="evenodd"/>
    <path id="Path_317989" data-name="Path 317989" d="M1348.85,1397.351h4l.012,3.208.532.069a23.372,23.372,0,0,0-.092-3.681c-.122-.168-.128-.132-.4-.131-.2,0-.406,0-.609,0l-3.435,0Z" transform="translate(-1343.1 -1395.08)" fill="#00e6df" fill-rule="evenodd"/>
    <path id="Path_317991" data-name="Path 317991" d="M1419.21,1664.15l-.149-.01.045.167Z" transform="translate(-1412.292 -1658.526)" fill="#fff" fill-rule="evenodd"/>
    <path id="Path_317992" data-name="Path 317992" d="M1319.057,1655.272c-.119-.053-.061.006-.147-.073l.048.174Z" transform="translate(-1313.595 -1649.716)" fill="#fff" fill-rule="evenodd"/>
    <path id="Icon_awesome-check" data-name="Icon awesome-check" d="M1.02,6.772.044,5.8a.15.15,0,0,1,0-.212l.212-.212a.15.15,0,0,1,.212,0l.657.657L2.533,4.621a.15.15,0,0,1,.212,0l.212.212a.15.15,0,0,1,0,.212L1.232,6.772A.15.15,0,0,1,1.02,6.772Z" transform="translate(9 3.547)" fill="#00e6df"/>
  </g>
</svg>
