<svg xmlns="http://www.w3.org/2000/svg" xmlns:xlink="http://www.w3.org/1999/xlink" width="85" height="85" viewBox="0 0 85 85">
  <defs>
    <filter id="Rectangle_6246" x="0" y="0" width="85" height="85" filterUnits="userSpaceOnUse">
      <feOffset dy="2" input="SourceAlpha"/>
      <feGaussianBlur stdDeviation="3" result="blur"/>
      <feFlood flood-color="#717578" flood-opacity="0.11"/>
      <feComposite operator="in" in2="blur"/>
      <feComposite in="SourceGraphic"/>
    </filter>
  </defs>
  <g id="Group_24690" data-name="Group 24690" transform="translate(-11 -178)">
    <g id="Group_24686" data-name="Group 24686" transform="translate(20 185.025)">
      <g transform="matrix(1, 0, 0, 1, -9, -7.02)" filter="url(#Rectangle_6246)">
        <rect id="Rectangle_6246-2" data-name="Rectangle 6246" width="67" height="67" rx="10" transform="translate(9 7)" fill="#00e6df"/>
      </g>
      <path id="Icon_awesome-calendar-check" data-name="Icon awesome-calendar-check" d="M24.638,9.042H.678A.678.678,0,0,1,0,8.363V6.329A2.712,2.712,0,0,1,2.712,3.617H5.425V.678A.678.678,0,0,1,6.1,0h2.26a.678.678,0,0,1,.678.678V3.617h7.233V.678A.678.678,0,0,1,16.953,0h2.26a.678.678,0,0,1,.678.678V3.617H22.6a2.712,2.712,0,0,1,2.712,2.712V8.363A.678.678,0,0,1,24.638,9.042ZM.678,10.85h23.96a.678.678,0,0,1,.678.678V26.221A2.712,2.712,0,0,1,22.6,28.933H2.712A2.712,2.712,0,0,1,0,26.221V11.528A.678.678,0,0,1,.678,10.85Zm18.835,5.422-1.592-1.6a.678.678,0,0,0-.959,0L10.97,20.607l-2.6-2.619a.678.678,0,0,0-.959,0l-1.6,1.592a.678.678,0,0,0,0,.959l4.668,4.706a.678.678,0,0,0,.959,0l8.078-8.013a.678.678,0,0,0,0-.959Z" transform="translate(20.699 19.467)" fill="#fff"/>
    </g>
  </g>
</svg>
