<svg xmlns="http://www.w3.org/2000/svg" width="9.934" height="11.353" viewBox="0 0 9.934 11.353">
  <path id="Icon_awesome-calendar-check" data-name="Icon awesome-calendar-check" d="M9.667,3.548H.266A.266.266,0,0,1,0,3.282v-.8A1.064,1.064,0,0,1,1.064,1.419H2.129V.266A.266.266,0,0,1,2.395,0h.887a.266.266,0,0,1,.266.266V1.419H6.386V.266A.266.266,0,0,1,6.652,0h.887A.266.266,0,0,1,7.8.266V1.419H8.869A1.064,1.064,0,0,1,9.934,2.483v.8A.266.266,0,0,1,9.667,3.548Zm-9.4.71h9.4a.266.266,0,0,1,.266.266v5.765a1.064,1.064,0,0,1-1.064,1.064h-7.8A1.064,1.064,0,0,1,0,10.288V4.523A.266.266,0,0,1,.266,4.257Zm7.39,2.127-.625-.63a.266.266,0,0,0-.376,0L4.3,8.086,3.285,7.058a.266.266,0,0,0-.376,0l-.63.625a.266.266,0,0,0,0,.376L4.109,9.9a.266.266,0,0,0,.376,0l3.17-3.144a.266.266,0,0,0,0-.376Z" fill="#e9bd1e"/>
</svg>
