<svg xmlns="http://www.w3.org/2000/svg" width="29.002" height="26.102" viewBox="0 0 29.002 26.102">
  <path id="photo_camera_FILL0_wght400_GRAD0_opsz48" d="M18.5,26.809a6.069,6.069,0,0,0,6.163-6.2,5.9,5.9,0,0,0-1.776-4.368A5.991,5.991,0,0,0,18.5,14.483a6.008,6.008,0,0,0-6.163,6.127A6.036,6.036,0,0,0,14.1,25.032,5.943,5.943,0,0,0,18.5,26.809Zm0-2.175a3.847,3.847,0,0,1-2.864-1.142,3.94,3.94,0,0,1-1.124-2.882,3.834,3.834,0,0,1,1.124-2.828A3.879,3.879,0,0,1,18.5,16.658a3.9,3.9,0,0,1,2.846,1.124,3.8,3.8,0,0,1,1.142,2.828,3.907,3.907,0,0,1-1.142,2.882A3.862,3.862,0,0,1,18.5,24.634ZM6.175,32.1a2.087,2.087,0,0,1-1.523-.653A2.087,2.087,0,0,1,4,29.926v-18.6a2.107,2.107,0,0,1,.653-1.5,2.06,2.06,0,0,1,1.523-.671H11.5L14.151,6h8.7L25.5,9.154h5.329a2.08,2.08,0,0,1,1.5.671,2.08,2.08,0,0,1,.671,1.5v18.6a2.06,2.06,0,0,1-.671,1.523,2.107,2.107,0,0,1-1.5.653Zm24.651-2.175v-18.6H24.482L21.836,8.175h-6.67l-2.646,3.154H6.175v18.6ZM18.5,20.646Z" transform="translate(-4 -6)" fill="#00e6df"/>
</svg>
