<svg id="Group_24604" data-name="Group 24604" xmlns="http://www.w3.org/2000/svg" width="14.571" height="14.586" viewBox="0 0 14.571 14.586">
  <path id="Path_317979" data-name="Path 317979" d="M1318.848,2601.739c.564-.293.5.522.5.917,0,.635-.1,1.13.15,1.388.49.51,1.656,1.385,1.07,1.67-.318.155-.727-.413-.882-.568-1.182-1.188-1-.818-1-2.041C1318.683,2602.713,1318.564,2601.886,1318.848,2601.739Zm-.16-1.128a3.31,3.31,0,1,0,3.742,2.795A3.289,3.289,0,0,0,1318.688,2600.61Z" transform="translate(-1308.556 -2593.279)" fill="#a7196f" fill-rule="evenodd"/>
  <path id="Path_317980" data-name="Path 317980" d="M1191.1,2481.284c-1.466-.381-3.889.628-4.52-.754a4.71,4.71,0,0,1-.117-1.636c0-7.958-.643-7.586,2.875-7.586h3.479a3.548,3.548,0,0,1,1.6.153,1.252,1.252,0,0,1,.629,1.09c.057,1.13-.024,2.34.007,3.484l.629-.075a28.571,28.571,0,0,0-.052-3.921,1.868,1.868,0,0,0-.874-1.142,3.015,3.015,0,0,0-1.711-.252h-3.984c-1.541,0-2.382-.131-3,.98-.424.756-.25,2.73-.25,3.733v3.984a2.688,2.688,0,0,0,.315,1.7,1.844,1.844,0,0,0,1.147.82,32.773,32.773,0,0,0,3.91.038Z" transform="translate(-1185.766 -2470.639)" fill="#a7196f" fill-rule="evenodd"/>
  <path id="Path_317981" data-name="Path 317981" d="M1307.515,2589.475a3.31,3.31,0,1,1-2.792,3.775A3.3,3.3,0,0,1,1307.515,2589.475Zm4.4,3.841a3.964,3.964,0,1,0-4.461,3.372A3.978,3.978,0,0,0,1311.911,2593.316Z" transform="translate(-1297.384 -2582.143)" fill="#a7196f" fill-rule="evenodd"/>
  <path id="Path_317982" data-name="Path 317982" d="M1235.629,2529.3a6.333,6.333,0,0,0-1.92.1.332.332,0,0,0-.017.428c.2.256,2.045.133,2.5.133,1.441,0,2.234.208,1.984-.577A11.074,11.074,0,0,0,1235.629,2529.3Z" transform="translate(-1230.937 -2525.979)" fill="#a7196f" fill-rule="evenodd"/>
  <path id="Path_317983" data-name="Path 317983" d="M1237.221,2565.56c.372,0,1,.1.909-.4-.066-.381-.7-.264-1.078-.263h-2.637c-.4,0-.926-.094-.888.368.034.413.678.3,1.057.3Z" transform="translate(-1230.845 -2559.591)" fill="#a7196f" fill-rule="evenodd"/>
  <path id="Path_317985" data-name="Path 317985" d="M1237.4,2600.622l-.242,0h-2.918c-.487,0-.562.216-.423.606l.423.058h2.525l.21-.005Z" transform="translate(-1231.057 -2593.325)" fill="#a7196f" fill-rule="evenodd"/>
</svg>
