<svg xmlns="http://www.w3.org/2000/svg" xmlns:xlink="http://www.w3.org/1999/xlink" width="86" height="86" viewBox="0 0 86 86">
  <defs>
    <filter id="Rectangle_6248" x="0" y="0" width="86" height="86" filterUnits="userSpaceOnUse">
      <feOffset dy="2" input="SourceAlpha"/>
      <feGaussianBlur stdDeviation="3" result="blur"/>
      <feFlood flood-color="#717578" flood-opacity="0.11"/>
      <feComposite operator="in" in2="blur"/>
      <feComposite in="SourceGraphic"/>
    </filter>
  </defs>
  <g id="Group_24694" data-name="Group 24694" transform="translate(-274 -290)">
    <g transform="matrix(1, 0, 0, 1, 274, 290)" filter="url(#Rectangle_6248)">
      <rect id="Rectangle_6248-2" data-name="Rectangle 6248" width="68" height="68" rx="10" transform="translate(9 7)" fill="#00e6df"/>
    </g>
    <path id="Icon_awesome-user-friends" data-name="Icon awesome-user-friends" d="M10.43,14.419A6.084,6.084,0,1,0,4.346,8.334,6.081,6.081,0,0,0,10.43,14.419ZM14.6,16.157h-.451a8.4,8.4,0,0,1-7.443,0H6.258A6.26,6.26,0,0,0,0,22.415V23.98a2.608,2.608,0,0,0,2.608,2.608H18.253a2.608,2.608,0,0,0,2.608-2.608V22.415A6.26,6.26,0,0,0,14.6,16.157Zm11.473-1.738A5.215,5.215,0,1,0,20.861,9.2,5.217,5.217,0,0,0,26.076,14.419Zm2.608,1.738h-.206a6.851,6.851,0,0,1-4.8,0h-.206a6.034,6.034,0,0,0-3.026.837A7.95,7.95,0,0,1,22.6,22.415V24.5c0,.12-.027.234-.033.348H32.16a2.608,2.608,0,0,0,2.608-2.608,6.081,6.081,0,0,0-6.084-6.084Z" transform="translate(299.5 316.25)" fill="#fff" stroke="#00e6df" stroke-width="1.5"/>
  </g>
</svg>
