<svg xmlns="http://www.w3.org/2000/svg" width="23.201" height="22.513" viewBox="0 0 23.201 22.513">
  <path id="person_FILL0_wght400_GRAD0_opsz48" d="M19.6,19.826a5.215,5.215,0,0,1-5.438-5.438A5.215,5.215,0,0,1,19.6,8.95a5.215,5.215,0,0,1,5.438,5.438A5.215,5.215,0,0,1,19.6,19.826ZM8,31.463V28.055A3.989,3.989,0,0,1,8.689,25.7a4.422,4.422,0,0,1,1.776-1.486,27.249,27.249,0,0,1,4.658-1.631,18.831,18.831,0,0,1,4.477-.544,18.039,18.039,0,0,1,4.459.562,30.881,30.881,0,0,1,4.64,1.613A4.371,4.371,0,0,1,30.513,25.7a3.989,3.989,0,0,1,.689,2.356v3.408Zm2.175-2.175H29.026V28.055a1.986,1.986,0,0,0-.344-1.106,2.183,2.183,0,0,0-.852-.779,19.25,19.25,0,0,0-4.241-1.541,18.756,18.756,0,0,0-3.988-.417,19.266,19.266,0,0,0-4.024.417,18.413,18.413,0,0,0-4.241,1.541,2.181,2.181,0,0,0-1.16,1.885ZM19.6,17.651a3.162,3.162,0,0,0,3.263-3.263,3.263,3.263,0,1,0-6.525,0A3.162,3.162,0,0,0,19.6,17.651ZM19.6,14.388ZM19.6,29.287Z" transform="translate(-8 -8.95)" fill="#00e6df"/>
</svg>
