<svg xmlns="http://www.w3.org/2000/svg" width="16.96" height="17.194" viewBox="0 0 16.96 17.194">
  <g id="icon" transform="translate(25.509 -8.5) rotate(90)">
    <g id="icon-2" data-name="icon" transform="translate(8.374 8.5)">
      <path id="Path_13" data-name="Path 13" d="M1.887,6.119,1.827,1.066A1.02,1.02,0,0,0,.9,0,.964.964,0,0,0,0,1.044L.059,6.1l.066,5.648.106,8.992A1.02,1.02,0,0,0,1.157,21.8a.964.964,0,0,0,.9-1.044l-.106-8.992L1.887,6.119Z" transform="translate(15.543 0.05) rotate(45)" fill="#fff"/>
      <path id="Path_12" data-name="Path 12" d="M19.746,9.33V8.582c0-.045.011-.082.025-.082s.025.037.025.082V9.33a.541.541,0,0,1,0,.438v.341c0,.045-.011.082-.025.082s-.025-.037-.025-.082V9.768a.541.541,0,0,1,0-.438Z" transform="translate(-11.101 -0.641)" fill="#fff"/>
      <path id="Path_1" data-name="Path 1" d="M1.991,6.134l.059-5.083A.967.967,0,0,0,1.153,0,1.023,1.023,0,0,0,.231,1.072L.172,6.155.106,11.836,0,20.881a.967.967,0,0,0,.9,1.051,1.023,1.023,0,0,0,.922-1.072l.106-9.045Z" transform="translate(0.362 1.501) rotate(-45)" fill="#fff"/>
    </g>
  </g>
</svg>
