<svg xmlns="http://www.w3.org/2000/svg" width="40.122" height="40.163" viewBox="0 0 40.122 40.163">
  <g id="Group_24604" data-name="Group 24604" transform="translate(-170 -202)">
    <path id="Path_317979" data-name="Path 317979" d="M1324.093,2603.788c1.554-.806,1.369,1.438,1.367,2.525,0,1.748-.269,3.112.413,3.821,1.35,1.406,4.56,3.815,2.945,4.6-.876.426-2-1.136-2.429-1.565-3.254-3.271-2.749-2.251-2.749-5.62C1323.64,2606.472,1323.312,2604.193,1324.093,2603.788Zm-.44-3.107a9.114,9.114,0,1,0,10.3,7.7A9.058,9.058,0,0,0,1323.652,2600.681Z" transform="translate(-1125.756 -2378.494)" fill="#f5f5f5" fill-rule="evenodd"/>
    <path id="Path_317980" data-name="Path 317980" d="M1200.448,2499.95c-4.036-1.051-10.708,1.729-12.446-2.077-.511-1.115-.321-3.144-.321-4.506,0-21.911-1.771-20.888,7.916-20.888h9.58c1.445,0,3.245-.227,4.4.422a3.447,3.447,0,0,1,1.731,3c.158,3.111-.065,6.443.018,9.594l1.732-.206a78.638,78.638,0,0,0-.142-10.8,5.143,5.143,0,0,0-2.407-3.145c-1.6-.885-2.741-.7-4.711-.7h-10.97c-4.241,0-6.559-.36-8.273,2.7-1.168,2.083-.688,7.517-.688,10.28v10.97c0,2.09-.1,3.141.867,4.693a5.076,5.076,0,0,0,3.16,2.259c1.374.316,8.968.211,10.766.1Z" transform="translate(-1015.766 -2268.639)" fill="#00e6df" fill-rule="evenodd"/>
    <path id="Path_317981" data-name="Path 317981" d="M1313.645,2590.706a9.114,9.114,0,1,1-7.689,10.4A9.073,9.073,0,0,1,1313.645,2590.706Zm12.1,10.576a10.914,10.914,0,1,0-12.284,9.285A10.952,10.952,0,0,0,1325.748,2601.283Z" transform="translate(-1115.748 -2368.519)" fill="#00e6df" fill-rule="evenodd"/>
    <path id="Path_317982" data-name="Path 317982" d="M1239.149,2529.345c-.811,0-4.781-.24-5.286.282a.913.913,0,0,0-.048,1.179c.538.7,5.632.367,6.879.367,3.968,0,6.151.573,5.464-1.59C1245.008,2529.063,1240.8,2529.345,1239.149,2529.345Z" transform="translate(-1056.228 -2318.21)" fill="#00e6df" fill-rule="evenodd"/>
    <path id="Path_317983" data-name="Path 317983" d="M1243.7,2566.753c1.024,0,2.741.27,2.5-1.1-.182-1.049-1.928-.726-2.967-.725h-7.262c-1.106,0-2.551-.26-2.446,1.014.094,1.137,1.867.814,2.91.814Z" transform="translate(-1056.146 -2348.318)" fill="#00e6df" fill-rule="evenodd"/>
    <path id="Path_317985" data-name="Path 317985" d="M1243.787,2600.626l-.667-.006h-8.035c-1.341,0-1.547.594-1.163,1.667l1.163.159h6.953l.579-.016Z" transform="translate(-1056.336 -2378.536)" fill="#00e6df" fill-rule="evenodd"/>
  </g>
</svg>
