<svg xmlns="http://www.w3.org/2000/svg" width="12.041" height="8.027" viewBox="0 0 12.041 8.027">
  <path id="Icon_awesome-eye" data-name="Icon awesome-eye" d="M11.968,8.208A6.7,6.7,0,0,0,6.02,4.5,6.706,6.706,0,0,0,.073,8.209a.676.676,0,0,0,0,.61A6.7,6.7,0,0,0,6.02,12.527a6.706,6.706,0,0,0,5.948-3.709A.676.676,0,0,0,11.968,8.208ZM6.02,11.524a3.01,3.01,0,1,1,3.01-3.01A3.01,3.01,0,0,1,6.02,11.524Zm0-5.017a1.992,1.992,0,0,0-.529.079,1,1,0,0,1-1.4,1.4A2,2,0,1,0,6.02,6.507Z" transform="translate(0 -4.5)" fill="#707070"/>
</svg>
