<svg xmlns="http://www.w3.org/2000/svg" width="32.426" height="31.169" viewBox="0 0 32.426 31.169">
  <g id="Layer_x0020_1" transform="translate(-975.45 -1259.78)">
    <g id="_2749471163232" transform="translate(975.95 1260.28)">
      <path id="Path_317995" data-name="Path 317995" d="M1061.707,1288.652c1.094-.732,1.263-.628,2.671-.628a17.821,17.821,0,0,1-.754,3.173c-.289,1.169-.562,2.083-.849,3.237l-1.7,6.317a28.339,28.339,0,0,0-8.7,1.042c-1.84.541-5.437,2.209-5.6,4.144,1.963.457,1.036,1.088,3.66.046,1.716-.682,2.036-.712,3.75-.072a15.846,15.846,0,0,0,1.86.654c.557,0,2.783-1.018,3.7-1.174,1.181-.2,2.819,1.017,3.682,1.017,1.043,0,2.613-1.1,3.614-1.1a7.3,7.3,0,0,1,3.088,1.009c1.177.538,1.675-.424,3.04-.537-.994-1.879-2.2-2.675-4.33-3.526a19.478,19.478,0,0,0-6.512-1.345l3.3-12.57c1.515.353,1.646,1.628,2.357,1.885l.157-4.085c0-2.22-.708-3.345-1.1-5.028C1065.182,1281.265,1061.863,1286.785,1061.707,1288.652Z" transform="translate(-1044.109 -1280.324)" fill="none" stroke="#00e6df" stroke-width="1" fill-rule="evenodd"/>
      <path id="Path_317996" data-name="Path 317996" d="M991.977,1960.347c-.671,0-3.328,1.071-3.864,1.163-.644.11-3.037-1.163-3.679-1.163-1.094,0-2.991,1.257-4.085,1.257-.151,0-1.3-.514-1.589-.61-1.122-.373-2.811-1.178-2.811.767,0,.779,1.437,1.014,2.044,1.255,3.063,1.211,1.5,1.2,4.22.3.286-.095,1.753-.651,1.96-.68.732-.1,2.871,1.173,3.875,1.173a37.459,37.459,0,0,0,3.667-1.173c.527-.075,3.2,1.173,3.561,1.173.808,0,3.07-1.257,3.928-1.257.432,0,2.832,1.414,3.3,1.414.16,0,2.309-.837,2.653-.961s1.889-.6,2.218-1.3v-.521a1.166,1.166,0,0,0-.3-.372c-1.142-.987-3.688.8-4.568.8-.432,0-2.832-1.414-3.3-1.414l-3.583,1.283C994.826,1961.647,992.612,1960.347,991.977,1960.347Z" transform="translate(-975.95 -1933.792)" fill="none" stroke="#00e6df" stroke-width="1" fill-rule="evenodd"/>
      <path id="Path_317997" data-name="Path 317997" d="M1593.8,1277.956c0,2.342-.291,3.342-.314,4.4,1.261-.337.07-.629,2.985-.629.846,0,2.7,1.03,2.828,2.514.389-.285.4-.344.441-1.9.113-4.121-3.236-8.647-7.2-9.57.169.724.578,1.527.789,2.354A12.729,12.729,0,0,1,1593.8,1277.956Z" transform="translate(-1569.285 -1272.299)" fill="none" stroke="#00e6df" stroke-width="1" fill-rule="evenodd"/>
      <path id="Path_317998" data-name="Path 317998" d="M1263.577,1267.036c1.282-.679.939-.786,2.671-.786a3.4,3.4,0,0,1,3.142,2.2h.314a17.007,17.007,0,0,1,3.574-6.325l1.769-1.688-2.671-.157C1268.254,1260.28,1263.816,1264.164,1263.577,1267.036Zm-.157,0,.047.047S1263.436,1267.021,1263.42,1267.036Z" transform="translate(-1252.578 -1260.28)" fill="none" stroke="#00e6df" stroke-width="1" fill-rule="evenodd"/>
      <path id="Path_317999" data-name="Path 317999" d="M1032.153,1489.178a2.213,2.213,0,1,1,4.4.471C1036.552,1492.121,1032.153,1492.352,1032.153,1489.178Zm-1.571-2.043a16.215,16.215,0,0,1,.37,1.857c-.069.454-.664.838-.842,1.6,1.459.34,1.73,1.174,2.043,2.514a16.12,16.12,0,0,1,1.729-.315c.521,0,1.05.628,1.729.786,1.379-2.606.841-1.24,2.514-2.043-.018-.821-.314-1.091-.314-1.885a6.529,6.529,0,0,0,.786-1.414,15.706,15.706,0,0,1-1.474-.883c-.271-.329-.351-1.333-.569-1.788-2.335,1.12-2.144-.2-3.457-.314a4.013,4.013,0,0,1-.865,1.335A15.585,15.585,0,0,1,1030.581,1487.135Z" transform="translate(-1028.067 -1476.765)" fill="none" stroke="#00e6df" stroke-width="1" fill-rule="evenodd"/>
    </g>
  </g>
</svg>
