<svg xmlns="http://www.w3.org/2000/svg" xmlns:xlink="http://www.w3.org/1999/xlink" width="86" height="86" viewBox="0 0 86 86">
  <defs>
    <filter id="Rectangle_6247" x="0" y="0" width="86" height="86" filterUnits="userSpaceOnUse">
      <feOffset dy="2" input="SourceAlpha"/>
      <feGaussianBlur stdDeviation="3" result="blur"/>
      <feFlood flood-color="#717578" flood-opacity="0.11"/>
      <feComposite operator="in" in2="blur"/>
      <feComposite in="SourceGraphic"/>
    </filter>
  </defs>
  <g id="Group_24696" data-name="Group 24696" transform="translate(-97 -291)">
    <g transform="matrix(1, 0, 0, 1, 97, 291)" filter="url(#Rectangle_6247)">
      <rect id="Rectangle_6247-2" data-name="Rectangle 6247" width="68" height="68" rx="10" transform="translate(9 7)" fill="#00e6df"/>
    </g>
    <path id="Path_317984" data-name="Path 317984" d="M1366.108,2620.4c-.479.248-.278,1.646-.278,2.307,0,2.067-.31,1.441,1.686,3.448.262.263.953,1.222,1.49.96.991-.481-.978-1.959-1.807-2.822-.418-.435-.254-1.272-.253-2.344C1366.948,2621.279,1367.062,2619.9,1366.108,2620.4Z" transform="translate(-1220.683 -2286.444)" fill="#00e6df" fill-rule="evenodd"/>
    <g id="Layer_x0020_1" transform="translate(-848.95 -940.28)">
      <g id="_2749471163232" transform="translate(975.95 1260.28)">
        <path id="Path_317995" data-name="Path 317995" d="M1058.948,1287.258c.892-.6,1.03-.512,2.177-.512a14.539,14.539,0,0,1-.615,2.587c-.236.953-.458,1.7-.692,2.639l-1.383,5.149a23.1,23.1,0,0,0-7.092.849c-1.5.441-4.432,1.8-4.563,3.378,1.6.373.844.887,2.983.037a3.093,3.093,0,0,1,3.057-.058,12.908,12.908,0,0,0,1.516.533c.454,0,2.268-.83,3.018-.957.963-.163,2.3.829,3,.829.85,0,2.13-.9,2.946-.9a5.95,5.95,0,0,1,2.517.823c.959.439,1.365-.346,2.478-.438a5.831,5.831,0,0,0-3.53-2.874,15.874,15.874,0,0,0-5.308-1.1l2.69-10.246c1.235.288,1.341,1.327,1.921,1.537l.128-3.33c0-1.81-.577-2.727-.9-4.1C1061.781,1281.236,1059.074,1285.736,1058.948,1287.258Z" transform="translate(-1044.602 -1280.469)" fill="#fff" fill-rule="evenodd"/>
        <path id="Path_317996" data-name="Path 317996" d="M989.014,1960.318c-.547,0-2.713.873-3.149.948-.525.09-2.476-.948-3-.948-.892,0-2.438,1.025-3.33,1.025-.123,0-1.06-.419-1.3-.5-.915-.3-2.291-.96-2.291.626,0,.635,1.171.827,1.667,1.023,2.5.988,1.221.975,3.44.24.233-.077,1.429-.53,1.6-.554.6-.085,2.34.956,3.159.956a30.576,30.576,0,0,0,2.989-.956c.429-.062,2.609.956,2.9.956.659,0,2.5-1.025,3.2-1.025.352,0,2.309,1.153,2.69,1.153.13,0,1.882-.682,2.162-.784s1.54-.49,1.808-1.06V1961a.95.95,0,0,0-.247-.3c-.931-.8-3.006.65-3.724.65-.352,0-2.309-1.153-2.69-1.153l-2.921,1.046C991.336,1961.378,989.532,1960.318,989.014,1960.318Z" transform="translate(-975.95 -1938.672)" fill="#fff" fill-rule="evenodd"/>
        <path id="Path_317997" data-name="Path 317997" d="M1593.565,1277c0,1.909-.237,2.724-.256,3.586,1.028-.275.057-.512,2.433-.512a2.675,2.675,0,0,1,2.305,2.049c.317-.232.325-.28.359-1.549a8.315,8.315,0,0,0-5.866-7.8c.137.59.471,1.245.643,1.918A10.373,10.373,0,0,1,1593.565,1277Z" transform="translate(-1573.584 -1272.386)" fill="#fff" fill-rule="evenodd"/>
        <path id="Path_317998" data-name="Path 317998" d="M1263.548,1265.787c1.045-.553.765-.64,2.178-.64a2.768,2.768,0,0,1,2.561,1.793h.256a13.864,13.864,0,0,1,2.913-5.156l1.442-1.376-2.177-.128C1267.361,1260.28,1263.743,1263.446,1263.548,1265.787Zm-.128,0,.038.038S1263.433,1265.775,1263.42,1265.787Z" transform="translate(-1254.582 -1260.28)" fill="#fff" fill-rule="evenodd"/>
        <path id="Path_317999" data-name="Path 317999" d="M1031.775,1488.452a1.8,1.8,0,1,1,3.586.384C1035.361,1490.851,1031.775,1491.039,1031.775,1488.452Zm-1.281-1.665a13.215,13.215,0,0,1,.3,1.514c-.056.37-.542.683-.686,1.3,1.189.277,1.411.957,1.665,2.049a13.133,13.133,0,0,1,1.409-.256c.424,0,.856.512,1.409.64,1.124-2.124.686-1.01,2.049-1.665-.015-.669-.256-.889-.256-1.537a5.319,5.319,0,0,0,.64-1.153,12.818,12.818,0,0,1-1.2-.72c-.22-.268-.286-1.087-.464-1.457-1.9.913-1.747-.167-2.818-.256a3.271,3.271,0,0,1-.705,1.088A12.668,12.668,0,0,1,1030.494,1486.787Z" transform="translate(-1028.445 -1478.333)" fill="#fff" fill-rule="evenodd"/>
      </g>
    </g>
  </g>
</svg>
