<svg xmlns="http://www.w3.org/2000/svg" width="24" height="26.667" viewBox="0 0 24 26.667">
  <g id="Group_24620" data-name="Group 24620" transform="translate(-176 -734)">
    <path id="Path" d="M17.588,0H6.413C2.36,0,0,2.373,0,6.44V20.213c0,4.133,2.36,6.453,6.413,6.453H17.588c4.119,0,6.412-2.32,6.412-6.453V6.44C24,2.373,21.707,0,17.588,0" transform="translate(176 734)" fill="#00e6df"/>
    <path id="Icon_awesome-home" data-name="Icon awesome-home" d="M5.943,4.717,2.034,7.936v3.474a.339.339,0,0,0,.339.339l2.376-.006a.339.339,0,0,0,.338-.339V9.376a.339.339,0,0,1,.339-.339H6.783a.339.339,0,0,1,.339.339V11.4a.339.339,0,0,0,.339.34l2.375.007a.339.339,0,0,0,.339-.339V7.934L6.267,4.717A.258.258,0,0,0,5.943,4.717Zm6.174,2.188L10.345,5.444V2.508a.254.254,0,0,0-.254-.254H8.9a.254.254,0,0,0-.254.254V4.047l-1.9-1.562a1.018,1.018,0,0,0-1.293,0L.091,6.905a.254.254,0,0,0-.034.358L.6,7.921a.254.254,0,0,0,.358.035L5.943,3.848a.258.258,0,0,1,.324,0l4.987,4.107a.254.254,0,0,0,.358-.034l.541-.657a.254.254,0,0,0-.036-.359Z" transform="translate(181.896 739.87)" fill="#d9fffe"/>
  </g>
</svg>
