<svg xmlns="http://www.w3.org/2000/svg" width="26.102" height="26.102" viewBox="0 0 26.102 26.102">
  <path id="image_FILL0_wght400_GRAD0_opsz48" d="M8.175,32.1a2.087,2.087,0,0,1-1.523-.653A2.087,2.087,0,0,1,6,29.926V8.175a2.087,2.087,0,0,1,.653-1.523A2.087,2.087,0,0,1,8.175,6H29.926a2.087,2.087,0,0,1,1.523.653A2.087,2.087,0,0,1,32.1,8.175V29.926A2.23,2.23,0,0,1,29.926,32.1Zm0-2.175H29.926V8.175H8.175Zm2.03-3.516H27.933L22.6,19.3l-4.785,6.2-3.371-4.6Zm-2.03,3.516v0Z" transform="translate(-6 -6)" fill="#00e6df"/>
</svg>
