<svg xmlns="http://www.w3.org/2000/svg" width="33.551" height="32.368" viewBox="0 0 33.551 32.368">
  <g id="Group_24605" data-name="Group 24605" transform="translate(-289.565 -200)">
    <path id="Path_317986" data-name="Path 317986" d="M970.363,1403.692l-.268.4-.114-.427a1.472,1.472,0,0,0-1.682-1.335,1.66,1.66,0,0,0-1.663,1.189l-.254.259-.122-.445c-.34-1.635-2.487-1.909-3.463.081-.112-2.2-.026-4.7-.014-6.932.007-1.267-.11-2.23-.959-2.655a1.9,1.9,0,0,0-2.489.645c-.532,1.1-.11,11.34-.229,13.568-.765-1.19-1.385-2.674-2.127-3.957a2.333,2.333,0,0,0-3.868-.353c-1.164,1.606.179,3.052.9,4.261l4.667,7.4c.915,1.7-.149,3.729,1.166,4.872,1.031.9,3.88.561,5.517.561,1.8,0,4.235.324,5.537-.527a10.082,10.082,0,0,1-2.707-3.731,9.859,9.859,0,0,1-.519-5.7c.659-3.075,3.362-6.257,5.955-6.9A1.7,1.7,0,0,0,970.363,1403.692Z" transform="translate(-662.654 -1189.297)" fill="none" stroke="#00e6df" stroke-width="1" fill-rule="evenodd"/>
    <path id="Path_317987" data-name="Path 317987" d="M1405.443,1702.8a8.2,8.2,0,1,0-9.168,7.128A8.172,8.172,0,0,0,1405.443,1702.8Z" transform="translate(-1082.887 -1478.118)" fill="none" stroke="#00e6df" stroke-width="1" fill-rule="evenodd"/>
    <path id="Path_317988" data-name="Path 317988" d="M1036.777,1286.339c-.066-2.055-.494-6.061,3.3-6.02a3.489,3.489,0,0,1,2.859,1.8c.545,1.084.34,2.936.333,4.266,3.012-1.523,2.723-9.038-3.193-9.053a5.1,5.1,0,0,0-4.921,6.688A4.107,4.107,0,0,0,1036.777,1286.339Z" transform="translate(-741.857 -1077.329)" fill="#00e6df" fill-rule="evenodd"/>
    <path id="Path_317989" data-name="Path 317989" d="M1348.85,1398.19H1359.1l.032,8.213,1.361.178c0-1.251.243-8.872-.234-9.422-.313-.431-.328-.337-1.025-.336-.517,0-1.04.012-1.56.012l-8.793-.007Z" transform="translate(-1044.131 -1192.375)" fill="#00e6df" fill-rule="evenodd"/>
    <path id="Path_317991" data-name="Path 317991" d="M1419.443,1664.166l-.382-.026.114.427Z" transform="translate(-1111.734 -1449.77)" fill="#999" fill-rule="evenodd"/>
    <path id="Path_317992" data-name="Path 317992" d="M1319.286,1655.386c-.306-.137-.156.015-.376-.186l.122.445Z" transform="translate(-1015.304 -1441.162)" fill="#797979" fill-rule="evenodd"/>
    <path id="Icon_awesome-check" data-name="Icon awesome-check" d="M2.61,10.2.113,7.7a.384.384,0,0,1,0-.543l.543-.543a.384.384,0,0,1,.543,0L2.882,8.293l3.6-3.6a.384.384,0,0,1,.543,0l.543.543a.384.384,0,0,1,0,.543L3.153,10.2A.384.384,0,0,1,2.61,10.2Z" transform="translate(310.57 216.221)" fill="#00e6df"/>
  </g>
</svg>
