<svg xmlns="http://www.w3.org/2000/svg" width="13.116" height="12.592" viewBox="0 0 13.116 12.592">
  <g id="Layer_x0020_1" transform="translate(-975.95 -1260.28)">
    <g id="_2749471163232" transform="translate(975.95 1260.28)">
      <path id="Path_317995" data-name="Path 317995" d="M1053.01,1284.258c.457-.306.527-.262,1.115-.262a7.445,7.445,0,0,1-.315,1.325c-.121.488-.235.869-.354,1.351l-.708,2.636a11.831,11.831,0,0,0-3.631.435c-.768.226-2.269.922-2.337,1.73.819.191.432.454,1.528.019a1.584,1.584,0,0,1,1.565-.03,6.591,6.591,0,0,0,.776.273c.233,0,1.161-.425,1.546-.49.493-.083,1.177.425,1.537.425.435,0,1.09-.459,1.508-.459a3.046,3.046,0,0,1,1.289.421c.491.224.7-.177,1.269-.224a2.986,2.986,0,0,0-1.807-1.472,8.129,8.129,0,0,0-2.718-.562l1.377-5.246c.632.147.687.679.984.787l.066-1.705a7.41,7.41,0,0,0-.459-2.1C1054.461,1281.175,1053.075,1283.478,1053.01,1284.258Z" transform="translate(-1045.665 -1280.782)" fill="#816df0" fill-rule="evenodd"/>
      <path id="Path_317996" data-name="Path 317996" d="M982.639,1960.255c-.28,0-1.389.447-1.613.485-.269.046-1.268-.485-1.536-.485-.456,0-1.248.525-1.705.525-.063,0-.543-.215-.663-.255-.469-.156-1.173-.492-1.173.32,0,.325.6.423.853.524,1.279.506.625.5,1.761.123.119-.04.732-.271.818-.284.305-.044,1.2.489,1.617.489a15.682,15.682,0,0,0,1.531-.489c.22-.031,1.336.489,1.486.489.337,0,1.281-.525,1.64-.525.18,0,1.182.59,1.377.59.067,0,.964-.349,1.107-.4s.788-.251.926-.543v-.217a.485.485,0,0,0-.126-.155c-.477-.412-1.539.333-1.907.333-.18,0-1.182-.59-1.377-.59l-1.5.536C983.828,1960.8,982.9,1960.255,982.639,1960.255Z" transform="translate(-975.95 -1949.172)" fill="#816df0" fill-rule="evenodd"/>
      <path id="Path_317997" data-name="Path 317997" d="M1593.065,1274.934c0,.977-.121,1.395-.131,1.836.526-.141.029-.262,1.246-.262a1.37,1.37,0,0,1,1.18,1.049c.162-.119.166-.143.184-.793a4.258,4.258,0,0,0-3-3.995c.07.3.241.637.33.982A5.317,5.317,0,0,1,1593.065,1274.934Z" transform="translate(-1582.834 -1272.573)" fill="#816df0" fill-rule="evenodd"/>
      <path id="Path_317998" data-name="Path 317998" d="M1263.485,1263.1c.535-.283.392-.328,1.115-.328a1.417,1.417,0,0,1,1.312.918h.131a7.1,7.1,0,0,1,1.492-2.64l.738-.7-1.115-.066C1265.438,1260.28,1263.585,1261.9,1263.485,1263.1Zm-.066,0,.02.019S1263.427,1263.094,1263.42,1263.1Z" transform="translate(-1258.895 -1260.28)" fill="#816df0" fill-rule="evenodd"/>
      <path id="Path_317999" data-name="Path 317999" d="M1030.963,1486.889a.923.923,0,1,1,1.836.2C1032.8,1488.118,1030.963,1488.214,1030.963,1486.889Zm-.656-.853a6.785,6.785,0,0,1,.155.775c-.029.19-.277.35-.351.668.609.142.722.49.853,1.049a6.737,6.737,0,0,1,.721-.131c.217,0,.438.262.721.328.575-1.088.351-.517,1.049-.853-.008-.343-.131-.455-.131-.787a2.719,2.719,0,0,0,.328-.59,6.54,6.54,0,0,1-.615-.369c-.113-.137-.146-.556-.238-.746-.974.468-.895-.085-1.443-.131a1.674,1.674,0,0,1-.361.557A6.5,6.5,0,0,1,1030.307,1486.037Z" transform="translate(-1029.257 -1481.708)" fill="#816df0" fill-rule="evenodd"/>
    </g>
  </g>
</svg>
