<svg xmlns="http://www.w3.org/2000/svg" width="9.37" height="8.165" viewBox="0 0 9.37 8.165">
  <g id="left-arrow" transform="translate(0 0)">
    <g id="Group_4852" data-name="Group 4852" transform="translate(0 0)">
      <path id="Path_10275" data-name="Path 10275" d="M5.648,135.424h6.5l-2.273-2.3a.666.666,0,0,1,0-.931.641.641,0,0,1,.916,0l3.386,3.424h0a.667.667,0,0,1,0,.932h0l-3.386,3.424a.641.641,0,0,1-.916,0,.666.666,0,0,1,0-.931l2.273-2.3h-6.5a.659.659,0,0,1,0-1.317Z" transform="translate(-5 -132)" fill="#646c7d"/>
    </g>
  </g>
</svg>
