<svg xmlns="http://www.w3.org/2000/svg" width="23.201" height="29.002" viewBox="0 0 23.201 29.002">
  <path id="location_on_FILL0_wght400_GRAD0_opsz48" d="M19.6,18.138A2.538,2.538,0,0,0,21.4,13.806,2.538,2.538,0,0,0,17.806,17.4,2.445,2.445,0,0,0,19.6,18.138Zm0,12a42.459,42.459,0,0,0,7.124-7.957,12.072,12.072,0,0,0,2.3-6.29,9.437,9.437,0,0,0-2.737-7A9.13,9.13,0,0,0,19.6,6.175a9.13,9.13,0,0,0-6.689,2.719,9.437,9.437,0,0,0-2.737,7,11.9,11.9,0,0,0,2.356,6.29A46.106,46.106,0,0,0,19.6,30.138ZM19.6,33a48.206,48.206,0,0,1-8.719-9.226A14.348,14.348,0,0,1,8,15.891a11.215,11.215,0,0,1,3.5-8.664,11.787,11.787,0,0,1,16.2,0,11.215,11.215,0,0,1,3.5,8.664,14.348,14.348,0,0,1-2.882,7.885A48.206,48.206,0,0,1,19.6,33ZM19.6,15.891Z" transform="translate(-8 -4)" fill="#00e6df"/>
</svg>
