<svg id="logout_1_" data-name="logout (1)" xmlns="http://www.w3.org/2000/svg" width="16.563" height="15.826" viewBox="0 0 16.563 15.826">
  <path id="Path_317978" data-name="Path 317978" d="M10.231,8.576a.671.671,0,0,0-.682.659v2.638a.672.672,0,0,1-.682.659H6.821V2.641a1.333,1.333,0,0,0-.929-1.254l-.2-.065H8.867a.672.672,0,0,1,.682.659V3.96a.682.682,0,0,0,1.364,0V1.982A2.016,2.016,0,0,0,8.867,0H1.535a.552.552,0,0,0-.073.014C1.429.016,1.4,0,1.364,0A1.343,1.343,0,0,0,0,1.323V13.192a1.333,1.333,0,0,0,.929,1.254l4.1,1.323a1.457,1.457,0,0,0,.423.061,1.343,1.343,0,0,0,1.364-1.319v-.659H8.867a2.016,2.016,0,0,0,2.046-1.978V9.235a.671.671,0,0,0-.682-.659Zm0,0" transform="translate(0 -0.004)" fill="#646c7d"/>
  <g id="left-arrow" transform="translate(7.194 2.606)">
    <g id="Group_4852" data-name="Group 4852" transform="translate(0 0)">
      <path id="Path_10275" data-name="Path 10275" d="M5.648,135.424h6.5l-2.273-2.3a.666.666,0,0,1,0-.931.641.641,0,0,1,.916,0l3.386,3.424h0a.667.667,0,0,1,0,.932h0l-3.386,3.424a.641.641,0,0,1-.916,0,.666.666,0,0,1,0-.931l2.273-2.3h-6.5a.659.659,0,0,1,0-1.317Z" transform="translate(-5 -132)" fill="#646c7d"/>
    </g>
  </g>
</svg>
