<svg xmlns="http://www.w3.org/2000/svg" width="23.025" height="23.025" viewBox="0 0 23.025 23.025">
  <path id="headphones_FILL0_wght400_GRAD0_opsz48" d="M12.652,29.025H7.919A1.967,1.967,0,0,1,6,27.106V17.513a11.138,11.138,0,0,1,.911-4.493,11.566,11.566,0,0,1,6.108-6.108,11.531,11.531,0,0,1,8.986,0,11.566,11.566,0,0,1,6.108,6.108,11.138,11.138,0,0,1,.911,4.493v9.594a1.967,1.967,0,0,1-1.919,1.919H22.373V19.559h4.733V17.513a9.252,9.252,0,0,0-2.8-6.8,9.252,9.252,0,0,0-6.8-2.8,9.252,9.252,0,0,0-6.8,2.8,9.252,9.252,0,0,0-2.8,6.8v2.047h4.733Zm-1.919-7.547H7.919v5.628h2.814Zm13.559,0v5.628h2.814V21.478Zm0,0h0Zm-13.559,0h0Z" transform="translate(-6 -6)" fill="#00e6df"/>
</svg>
