<svg xmlns="http://www.w3.org/2000/svg" xmlns:xlink="http://www.w3.org/1999/xlink" width="85" height="85" viewBox="0 0 85 85">
  <defs>
    <filter id="Rectangle_6246" x="0" y="0" width="85" height="85" filterUnits="userSpaceOnUse">
      <feOffset dy="2" input="SourceAlpha"/>
      <feGaussianBlur stdDeviation="3" result="blur"/>
      <feFlood flood-color="#717578" flood-opacity="0.11"/>
      <feComposite operator="in" in2="blur"/>
      <feComposite in="SourceGraphic"/>
    </filter>
  </defs>
  <g id="Group_24697" data-name="Group 24697" transform="translate(-11 -291)">
    <g transform="matrix(1, 0, 0, 1, 11, 291)" filter="url(#Rectangle_6246)">
      <rect id="Rectangle_6246-2" data-name="Rectangle 6246" width="67" height="67" rx="10" transform="translate(9 7)" fill="#00e6df"/>
    </g>
    <path id="Icon_ionic-md-globe" data-name="Icon ionic-md-globe" d="M16.643,3.375A13.268,13.268,0,1,0,29.911,16.643,13.268,13.268,0,0,0,16.643,3.375ZM15.268,27.933A11.374,11.374,0,0,1,7.988,9.265a12.6,12.6,0,0,1,.128,1.542c-.1,1.518-.254,2.468.634,3.748a6.185,6.185,0,0,1,.6,1.791c.165.565.823.861,1.277,1.209.916.7,1.792,1.518,2.763,2.136.641.408,1.041.611.854,1.393a4.943,4.943,0,0,1-.519,1.577,3.2,3.2,0,0,0,.533,1.428c.478.478.953.917,1.474,1.348C16.54,26.106,15.654,26.973,15.268,27.933Zm9.416-3.249a11.291,11.291,0,0,1-5.9,3.131,4.718,4.718,0,0,1,1.4-1.873,4.752,4.752,0,0,0,1.256-1.553,10.791,10.791,0,0,1,.866-1.481c.451-.7-1.111-1.744-1.617-1.963a16.671,16.671,0,0,1-3.008-1.874c-.721-.507-2.185.265-3-.09a15.693,15.693,0,0,1-3-2.063c-1-.753-.952-1.631-.952-2.743.783.029,1.9-.217,2.418.413.164.2.728,1.087,1.106.771.309-.258-.229-1.292-.332-1.535-.319-.747.727-1.039,1.263-1.545.7-.661,2.2-1.7,2.08-2.172s-1.5-1.816-2.312-1.607c-.122.031-1.193,1.154-1.4,1.331q.008-.55.017-1.1c0-.231-.432-.469-.411-.618.051-.377,1.1-1.062,1.362-1.362-.183-.114-.807-.651-1-.572-.458.191-.974.322-1.432.513a2.913,2.913,0,0,0-.042-.455A11.264,11.264,0,0,1,14.93,5.4l.9.361.634.753.633.653.553.178.879-.829L18.3,5.922V5.39a11.248,11.248,0,0,1,4.817,1.9c-.257.023-.54.061-.859.1a2.858,2.858,0,0,0-.444-.167c.417.9.851,1.779,1.293,2.663.472.944,1.518,1.957,1.7,2.953.216,1.175.066,2.242.185,3.624a6.19,6.19,0,0,0,1.5,2.843,3,3,0,0,0,1.173.142A11.3,11.3,0,0,1,24.684,24.684Z" transform="translate(37.125 315.125)" fill="#fff" stroke="#fff" stroke-width="1.5"/>
  </g>
</svg>
