<svg xmlns="http://www.w3.org/2000/svg" width="10.694" height="14.772" viewBox="0 0 10.694 14.772">
  <path id="Icon_awesome-rupee-sign" data-name="Icon awesome-rupee-sign" d="M9.812,4.289a.382.382,0,0,0,.382-.382V2.632a.382.382,0,0,0-.382-.382H.382A.382.382,0,0,0,0,2.632V4.058a.382.382,0,0,0,.382.382H3.1a2.3,2.3,0,0,1,1.942.868H.382A.382.382,0,0,0,0,5.69V6.965a.382.382,0,0,0,.382.382H5.44A2.2,2.2,0,0,1,3.058,9.215H.382A.382.382,0,0,0,0,9.6v1.689a.382.382,0,0,0,.123.281L5.381,16.42a.382.382,0,0,0,.259.1H8.27a.382.382,0,0,0,.259-.663L3.723,11.422A4.364,4.364,0,0,0,8.129,7.347H9.812a.382.382,0,0,0,.382-.382V5.69a.382.382,0,0,0-.382-.382H7.942a4.364,4.364,0,0,0-.454-1.019Z" transform="translate(0.25 -2)" fill="none" stroke="#a7196f" stroke-width="0.5"/>
</svg>
