<svg xmlns="http://www.w3.org/2000/svg" width="8.865" height="12.131" viewBox="0 0 8.865 12.131">
  <path id="Icon_awesome-rupee-sign" data-name="Icon awesome-rupee-sign" d="M7.859,3.883a.306.306,0,0,0,.306-.306V2.556a.306.306,0,0,0-.306-.306H.306A.306.306,0,0,0,0,2.556V3.7A.306.306,0,0,0,.306,4H2.482a1.841,1.841,0,0,1,1.556.7H.306A.306.306,0,0,0,0,5.006V6.026a.306.306,0,0,0,.306.306H4.357a1.763,1.763,0,0,1-1.908,1.5H.306A.306.306,0,0,0,0,8.135V9.488a.306.306,0,0,0,.1.225L4.31,13.6a.306.306,0,0,0,.208.081H6.624a.306.306,0,0,0,.208-.531L2.982,9.6A3.5,3.5,0,0,0,6.512,6.333H7.859a.306.306,0,0,0,.306-.306V5.006A.306.306,0,0,0,7.859,4.7h-1.5A3.5,3.5,0,0,0,6,3.883Z" transform="translate(0.35 -1.9)" fill="none" stroke="#00e6df" stroke-width="0.7"/>
</svg>
