<svg xmlns="http://www.w3.org/2000/svg" xmlns:xlink="http://www.w3.org/1999/xlink" width="85" height="85" viewBox="0 0 85 85">
  <defs>
    <filter id="Rectangle_6246" x="0" y="0" width="85" height="85" filterUnits="userSpaceOnUse">
      <feOffset dy="2" input="SourceAlpha"/>
      <feGaussianBlur stdDeviation="3" result="blur"/>
      <feFlood flood-color="#717578" flood-opacity="0.11"/>
      <feComposite operator="in" in2="blur"/>
      <feComposite in="SourceGraphic"/>
    </filter>
  </defs>
  <g id="Group_24698" data-name="Group 24698" transform="translate(-11 -404)">
    <g transform="matrix(1, 0, 0, 1, 11, 404)" filter="url(#Rectangle_6246)">
      <rect id="Rectangle_6246-2" data-name="Rectangle 6246" width="67" height="67" rx="10" transform="translate(9 7)" fill="#00e6df"/>
    </g>
    <path id="Icon_awesome-rupee-sign" data-name="Icon awesome-rupee-sign" d="M17.187,5.821a.67.67,0,0,0,.67-.67V2.92a.67.67,0,0,0-.67-.67H.67A.67.67,0,0,0,0,2.92v2.5a.67.67,0,0,0,.67.67H5.429a4.026,4.026,0,0,1,3.4,1.521H.67a.67.67,0,0,0-.67.67v2.232a.67.67,0,0,0,.67.67H9.529A3.856,3.856,0,0,1,5.357,14.45H.67a.67.67,0,0,0-.67.67v2.958a.67.67,0,0,0,.215.492l9.21,8.5a.67.67,0,0,0,.454.178h4.607a.67.67,0,0,0,.454-1.162l-8.42-7.772a7.645,7.645,0,0,0,7.719-7.138h2.947a.67.67,0,0,0,.67-.67V8.277a.67.67,0,0,0-.67-.67H13.912a7.644,7.644,0,0,0-.8-1.786Z" transform="translate(44.09 430.076)" fill="#fff" stroke="#00e6df" stroke-width="1.5"/>
  </g>
</svg>
