<svg xmlns="http://www.w3.org/2000/svg" width="13.834" height="13.848" viewBox="0 0 13.834 13.848">
  <g id="Group_24604" data-name="Group 24604" transform="translate(0 0)">
    <path id="Path_317979" data-name="Path 317979" d="M1318.7,2601.68c.536-.278.472.5.471.87,0,.6-.093,1.073.142,1.318.465.485,1.572,1.315,1.015,1.586-.3.147-.691-.392-.838-.54-1.122-1.128-.948-.776-.948-1.937C1318.54,2602.6,1318.427,2601.819,1318.7,2601.68Zm-.152-1.072a3.142,3.142,0,1,0,3.553,2.654A3.123,3.123,0,0,0,1318.544,2600.608Z" transform="translate(-1308.926 -2593.648)" fill="#e9bd1e" fill-rule="evenodd"/>
    <path id="Path_317980" data-name="Path 317980" d="M1190.829,2480.745c-1.391-.362-3.692.6-4.291-.716a4.471,4.471,0,0,1-.111-1.553c0-7.555-.61-7.2,2.729-7.2h3.3a3.365,3.365,0,0,1,1.516.146,1.188,1.188,0,0,1,.6,1.035c.054,1.073-.022,2.222.006,3.308l.6-.071a27.087,27.087,0,0,0-.049-3.722,1.773,1.773,0,0,0-.83-1.084,2.861,2.861,0,0,0-1.624-.24h-3.783c-1.462,0-2.261-.124-2.852.931-.4.718-.237,2.592-.237,3.544v3.782a2.552,2.552,0,0,0,.3,1.618,1.75,1.75,0,0,0,1.089.779,31.067,31.067,0,0,0,3.712.036Z" transform="translate(-1185.766 -2470.639)" fill="#e9bd1e" fill-rule="evenodd"/>
    <path id="Path_317981" data-name="Path 317981" d="M1307.339,2589.439a3.143,3.143,0,1,1-2.651,3.584A3.129,3.129,0,0,1,1307.339,2589.439Zm4.173,3.647a3.763,3.763,0,1,0-4.236,3.2A3.777,3.777,0,0,0,1311.512,2593.086Z" transform="translate(-1297.72 -2582.479)" fill="#e9bd1e" fill-rule="evenodd"/>
    <path id="Path_317982" data-name="Path 317982" d="M1235.528,2529.3a6.017,6.017,0,0,0-1.823.1.315.315,0,0,0-.017.407c.186.242,1.942.126,2.372.126,1.368,0,2.121.2,1.884-.548A10.524,10.524,0,0,0,1235.528,2529.3Z" transform="translate(-1231.073 -2526.146)" fill="#e9bd1e" fill-rule="evenodd"/>
    <path id="Path_317983" data-name="Path 317983" d="M1237.034,2565.525c.353,0,.945.093.863-.379-.063-.362-.665-.251-1.023-.25h-2.5c-.381,0-.88-.089-.843.35.033.392.644.281,1,.281Z" transform="translate(-1230.98 -2559.858)" fill="#e9bd1e" fill-rule="evenodd"/>
    <path id="Path_317985" data-name="Path 317985" d="M1237.211,2600.622l-.23,0h-2.77c-.462,0-.533.2-.4.575l.4.055h2.4l.2-.006Z" transform="translate(-1231.193 -2593.695)" fill="#e9bd1e" fill-rule="evenodd"/>
  </g>
</svg>
