<svg xmlns="http://www.w3.org/2000/svg" width="14" height="14" viewBox="0 0 14 14">
  <g id="Group_23208" data-name="Group 23208" transform="translate(-56 -190)">
    <g id="Ellipse_2487" data-name="Ellipse 2487" transform="translate(56 190)" fill="#00e6df" stroke="#fff" stroke-width="1">
      <circle cx="7" cy="7" r="7" stroke="none"/>
      <circle cx="7" cy="7" r="6.5" fill="none"/>
    </g>
    <path id="Icon_awesome-arrow-right" data-name="Icon awesome-arrow-right" d="M2.368.364,2.643.088a.3.3,0,0,1,.421,0L5.481,2.5a.3.3,0,0,1,0,.421L3.065,5.34a.3.3,0,0,1-.421,0l-.276-.276a.3.3,0,0,1,0-.426l1.5-1.427H.3a.3.3,0,0,1-.3-.3v-.4a.3.3,0,0,1,.3-.3H3.87L2.373.79A.3.3,0,0,1,2.368.364Z" transform="matrix(0.809, -0.588, 0.588, 0.809, 59.152, 196.441)" fill="#fff"/>
  </g>
</svg>
